<svg width="279" height="97" viewBox="0 0 279 97" fill="none" xmlns="http://www.w3.org/2000/svg">
<path d="M279 10.5C279 8.01472 276.985 6 274.5 6C272.015 6 270 8.01472 270 10.5V91.5C270 93.9853 272.015 96 274.5 96C276.985 96 279 93.9853 279 91.5V10.5Z" fill="#424242"/>
<path d="M258 10.5C258 8.01472 255.985 6 253.5 6C251.015 6 249 8.01472 249 10.5V91.5C249 93.9853 251.015 96 253.5 96C255.985 96 258 93.9853 258 91.5V10.5Z" fill="#424242"/>
<path d="M228 44.5757V40.5098C228 38.0191 230.02 36 232.5 36C234.985 36 237 38.0135 237 40.5098V91.4902C237 93.9809 234.98 96 232.5 96C230.015 96 228 93.9865 228 91.4902V87.4243C222.589 92.729 215.176 96 207 96C190.431 96 177 82.5685 177 66C177 49.4315 190.431 36 207 36C215.176 36 222.589 39.271 228 44.5757ZM207 87C218.598 87 228 77.598 228 66C228 54.402 218.598 45 207 45C195.402 45 186 54.402 186 66C186 77.598 195.402 87 207 87Z" fill="#424242"/>
<path d="M171.567 44.4332C159.656 32.5223 140.344 32.5223 128.433 44.4332C116.522 56.3442 116.522 75.6558 128.433 87.5668C140.344 99.4777 159.656 99.4777 171.567 87.5668C173.324 85.8094 173.324 82.9602 171.567 81.2028C169.809 79.4454 166.96 79.4454 165.203 81.2028C156.807 89.5991 143.193 89.5991 134.797 81.2028C126.401 72.8065 126.401 59.1935 134.797 50.7972C143.193 42.4009 156.807 42.4009 165.203 50.7972C166.96 52.5546 169.809 52.5546 171.567 50.7972C173.324 49.0398 173.324 46.1906 171.567 44.4332Z" fill="#424242"/>
<path d="M102 41.6501V40.5098C102 38.0191 99.9802 36 97.5 36C95.0147 36 93 38.0135 93 40.5098V91.4902C93 93.9809 95.0198 96 97.5 96C99.9853 96 102 93.9865 102 91.4902V65.08C102.27 52.772 107.976 45.0293 116.915 45.0293C119.4 45.0293 121.415 43.0146 121.415 40.5293C121.415 38.044 119.4 36.0293 116.915 36.0293C110.917 36.0293 105.88 38.0782 102 41.6501Z" fill="#424242"/>
<path d="M81 40.5C81 38.0147 78.9853 36 76.5 36C74.0147 36 72 38.0147 72 40.5V91.5C72 93.9853 74.0147 96 76.5 96C78.9853 96 81 93.9853 81 91.5V40.5Z" fill="#424242"/>
<path d="M76.5 21C82.299 21 87 16.299 87 10.5C87 4.70101 82.299 0 76.5 0C70.701 0 66 4.70101 66 10.5C66 16.299 70.701 21 76.5 21Z" fill="#2AC420"/>
<path d="M51 44.5757V40.5098C51 38.0191 53.0198 36 55.5 36C57.9853 36 60 38.0135 60 40.5098V91.4902C60 93.9809 57.9802 96 55.5 96C53.0147 96 51 93.9865 51 91.4902V87.4243C45.5887 92.729 38.1764 96 30 96C13.4315 96 0 82.5685 0 66C0 49.4315 13.4315 36 30 36C38.1764 36 45.5887 39.271 51 44.5757ZM30 87C41.598 87 51 77.598 51 66C51 54.402 41.598 45 30 45C18.402 45 9 54.402 9 66C9 77.598 18.402 87 30 87Z" fill="#424242"/>
</svg>
